<svg width="23" height="22" xmlns="http://www.w3.org/2000/svg" xmlns:xlink="http://www.w3.org/1999/xlink" overflow="hidden"><defs><clipPath id="clip0"><rect x="794" y="530" width="23" height="22"/></clipPath></defs><g clip-path="url(#clip0)" transform="translate(-794 -530)"><path d="M20.1667 11.2292C20.1644 11.9876 19.5501 12.6019 18.7917 12.6042L14.4375 12.6042C14.0693 12.6107 13.769 12.901 13.75 13.2688 13.7729 13.6813 14.4375 14.5063 14.4375 17.6458 14.4375 18.4052 13.8219 19.0208 13.0625 19.0208 12.3031 19.0208 11.6875 18.4052 11.6875 17.6458 11.6875 14.1625 7.63125 12.1917 7.5625 12.1458L7.5625 4.8125C9.18958 4.8125 9.30417 2.97917 12.375 2.97917L16.5 2.97917C17.2585 2.98144 17.8727 3.59572 17.875 4.35417 17.8803 4.69647 17.7482 5.02663 17.5083 5.27083L17.6458 5.27083C18.4043 5.2731 19.0186 5.88738 19.0208 6.64583 19.0242 7.00574 18.884 7.35215 18.6313 7.60833 19.3695 7.76891 19.8377 8.49752 19.6771 9.23574 19.6179 9.50808 19.4769 9.75583 19.2729 9.94583 19.8145 10.1387 20.1736 10.6543 20.1667 11.2292Z" fill="#CA0034" transform="matrix(1.04545 0 0 1 794 530)"/><path d="M5.27083 13.2917 1.83333 13.2917 1.83333 3.66667 5.27083 3.66667C5.77647 3.66818 6.18599 4.0777 6.1875 4.58333L6.1875 12.375C6.18599 12.8806 5.77647 13.2902 5.27083 13.2917Z" fill="#CA0034" transform="matrix(1.04545 0 0 1 794 530)"/></g></svg>